<svg width="212" height="39" viewBox="0 0 212 39" fill="none" xmlns="http://www.w3.org/2000/svg">
<path d="M113.225 15.3416C113.067 15.4203 112.59 15.5776 112.034 15.5776C109.97 15.5776 109.017 13.8468 109.017 11.9586C109.017 10.1491 109.891 8.41821 112.034 8.41821C112.431 8.41821 112.908 8.49689 113.225 8.65424V9.36231C113.067 9.20496 112.511 9.04761 112.034 9.04761C111.558 9.04761 109.732 9.28364 109.732 12.0373C109.732 14.4762 111.24 15.0269 112.034 15.0269C112.59 15.0269 112.828 14.8696 113.225 14.7122V15.3416Z" fill="#00005B"/>
<path d="M116.878 8.41821C119.339 8.41821 119.339 11.4079 119.339 11.9586C119.339 12.588 119.339 15.499 116.878 15.499C114.416 15.499 114.417 12.5093 114.417 11.9586C114.417 11.4079 114.416 8.41821 116.878 8.41821ZM116.878 14.9482C118.704 14.9482 118.704 12.5093 118.704 11.9586C118.704 11.4079 118.704 8.96894 116.878 8.96894C115.052 8.96894 115.052 11.4079 115.052 11.9586C115.052 12.5093 115.052 14.9482 116.878 14.9482Z" fill="#00005B"/>
<path d="M120.689 8.49689H122.357C123.548 8.49689 124.183 9.28364 124.183 10.3064C124.183 11.4865 123.389 11.8799 122.754 12.0373C122.992 12.1159 123.309 12.1946 123.468 12.6667L124.5 15.5776H123.865L122.992 13.2174C122.754 12.588 122.595 12.352 122.039 12.352H121.245V15.5776H120.689V8.49689ZM121.324 11.6439H122.198C123.468 11.6439 123.548 10.5424 123.548 10.3064C123.548 9.12629 122.595 9.04761 122.198 9.04761H121.404V11.6439H121.324Z" fill="#00005B"/>
<path d="M125.771 8.49689H127.121C128.47 8.49689 129.264 9.04761 129.264 10.4638C129.264 11.9586 128.232 12.4306 127.279 12.4306H126.406V15.499H125.771V8.49689ZM126.406 11.8799H127.041C127.994 11.8799 128.55 11.5652 128.55 10.4638C128.55 9.04761 127.518 9.04761 126.882 9.04761H126.327V11.8799H126.406Z" fill="#00005B"/>
<path d="M132.679 8.41821C135.14 8.41821 135.14 11.4079 135.14 11.9586C135.14 12.588 135.14 15.499 132.679 15.499C130.217 15.499 130.217 12.5093 130.217 11.9586C130.138 11.4079 130.138 8.41821 132.679 8.41821ZM132.679 14.9482C134.505 14.9482 134.505 12.5093 134.505 11.9586C134.505 11.4079 134.505 8.96894 132.679 8.96894C130.852 8.96894 130.852 11.4079 130.852 11.9586C130.852 12.5093 130.852 14.9482 132.679 14.9482Z" fill="#00005B"/>
<path d="M136.49 8.49689H138.078C139.269 8.49689 139.984 9.28364 139.984 10.3064C139.984 11.4865 139.19 11.8799 138.554 12.0373C138.793 12.1159 139.11 12.1946 139.269 12.6667L140.301 15.5776H139.666L138.793 13.2174C138.554 12.588 138.396 12.352 137.84 12.352H137.046V15.5776H136.411V8.49689H136.49ZM137.125 11.6439H137.999C139.269 11.6439 139.348 10.5424 139.348 10.3064C139.348 9.12629 138.396 9.04761 137.999 9.04761H137.205V11.6439H137.125Z" fill="#00005B"/>
<path d="M143.239 8.49689H143.874L146.256 15.499H145.621L144.986 13.6108H142.127L141.492 15.499H140.857L143.239 8.49689ZM142.286 12.9814H144.748L143.557 9.12629L142.286 12.9814Z" fill="#00005B"/>
<path d="M150.941 15.3416C150.782 15.4203 150.306 15.5776 149.75 15.5776C147.685 15.5776 146.733 13.8468 146.733 11.9586C146.733 10.1491 147.606 8.41821 149.75 8.41821C150.147 8.41821 150.623 8.49689 150.941 8.65424V9.36231C150.703 9.20496 150.226 9.04761 149.75 9.04761C149.273 9.04761 147.447 9.28364 147.447 12.0373C147.447 14.4762 148.956 15.0269 149.75 15.0269C150.306 15.0269 150.544 14.8696 150.941 14.7122V15.3416Z" fill="#00005B"/>
<path d="M153.085 8.49689H152.449V15.499H153.085V8.49689Z" fill="#00005B"/>
<path d="M156.896 8.41823C159.357 8.41823 159.357 11.4079 159.357 11.9586C159.357 12.588 159.357 15.499 156.896 15.499C154.434 15.499 154.434 12.5093 154.434 11.9586C154.355 11.4079 154.355 8.41823 156.896 8.41823ZM156.896 14.9482C158.722 14.9482 158.722 12.5093 158.722 11.9586C158.722 11.4079 158.722 8.96895 156.896 8.96895C155.07 8.96895 155.07 11.4079 155.07 11.9586C155.07 12.5093 155.07 14.9482 156.896 14.9482ZM157.849 6.76605L156.896 8.1822H156.419L157.213 6.76605H157.849Z" fill="#00005B"/>
<path d="M160.707 8.49689H161.501L164.439 14.7122V8.49689H165.074V15.499H164.28L161.263 9.36231V15.499H160.707V8.49689Z" fill="#00005B"/>
<path d="M169.124 8.49689H170.076C172.379 8.49689 173.491 9.59834 173.491 11.8799C173.491 13.9255 172.458 15.499 170.235 15.499H169.124V8.49689ZM169.759 14.8696H170.394C171.982 14.8696 172.855 13.6894 172.855 11.9586C172.855 10.8571 172.697 9.04761 170.315 9.04761H169.759V14.8696Z" fill="#00005B"/>
<path d="M174.761 8.49689H177.778V9.04761H175.396V11.5652H177.62V12.1159H175.396V14.8696H177.858V15.499H174.761V8.49689Z" fill="#00005B"/>
<path d="M109.017 19.1967H112.034V19.7474H109.652V22.265H111.876V22.8158H109.652V25.5694H112.114V26.1988H109.017V19.1967Z" fill="#00005B"/>
<path d="M113.543 19.1967H114.496C116.878 19.1967 117.91 20.2982 117.91 22.5797C117.91 24.6253 116.957 26.1988 114.655 26.1988H113.543V19.1967ZM114.178 25.5694H114.814C116.402 25.5694 117.196 24.3893 117.196 22.6584C117.196 21.557 117.037 19.7474 114.655 19.7474H114.099V25.5694H114.178Z" fill="#00005B"/>
<path d="M119.181 19.1967H119.816V23.6025C119.816 24.6253 119.975 25.6481 121.245 25.6481C122.595 25.6481 122.754 24.5466 122.754 23.6025V19.1967H123.389V23.6025C123.389 25.0187 122.912 26.2775 121.324 26.2775C119.657 26.2775 119.26 25.0973 119.26 23.6025V19.1967H119.181Z" fill="#00005B"/>
<path d="M128.947 26.0414C128.788 26.1201 128.312 26.2775 127.756 26.2775C125.691 26.2775 124.739 24.5466 124.739 22.6584C124.739 20.8489 125.612 19.118 127.756 19.118C128.153 19.118 128.629 19.1967 128.947 19.3541V20.0621C128.788 19.9048 128.232 19.7474 127.756 19.7474C127.279 19.7474 125.453 19.9835 125.453 22.7371C125.453 25.176 126.962 25.7267 127.756 25.7267C128.312 25.7267 128.55 25.5694 128.947 25.412V26.0414Z" fill="#00005B"/>
<path d="M132.043 19.1967H132.679L135.061 26.1988H134.426L133.79 24.2319H131.011L130.376 26.1988H129.741L132.043 19.1967ZM131.17 23.6812H133.631L132.44 19.8261L131.17 23.6812Z" fill="#00005B"/>
<path d="M139.825 26.0414C139.666 26.1201 139.19 26.2775 138.634 26.2775C136.569 26.2775 135.616 24.5466 135.616 22.6584C135.616 20.8489 136.49 19.118 138.634 19.118C139.031 19.118 139.507 19.1967 139.825 19.3541V20.0621C139.587 19.9048 139.11 19.7474 138.634 19.7474C138.157 19.7474 136.331 19.9835 136.331 22.7371C136.331 25.176 137.84 25.7267 138.634 25.7267C139.19 25.7267 139.428 25.5694 139.825 25.412V26.0414Z" fill="#00005B"/>
<path d="M141.889 19.1967H141.254V26.1988H141.889V19.1967Z" fill="#00005B"/>
<path d="M145.7 19.118C148.162 19.118 148.162 22.1076 148.162 22.6584C148.162 23.2878 148.162 26.1987 145.7 26.1987C143.239 26.1987 143.239 23.2091 143.239 22.6584C143.239 22.1076 143.239 19.118 145.7 19.118ZM145.7 25.648C147.527 25.648 147.527 23.2091 147.527 22.6584C147.527 22.1076 147.527 19.6687 145.7 19.6687C143.874 19.6687 143.874 22.1076 143.874 22.6584C143.874 23.2091 143.874 25.648 145.7 25.648ZM146.733 17.4658L145.78 18.882H145.303L146.097 17.4658H146.733Z" fill="#00005B"/>
<path d="M149.512 19.1967H150.385L153.323 25.412V19.1967H153.879V26.1988H153.085L150.147 19.9835V26.1988H149.512V19.1967Z" fill="#00005B"/>
<path d="M156.817 19.1967H160.707V19.7474H159.119V26.1988H158.484V19.7474H156.817V19.1967Z" fill="#00005B"/>
<path d="M161.739 19.1967H164.756V19.7474H162.374V22.265H164.598V22.8158H162.374V25.5694H164.836V26.1988H161.739V19.1967Z" fill="#00005B"/>
<path d="M170.235 26.0414C169.997 26.1201 169.6 26.2775 169.044 26.2775C166.98 26.2775 166.027 24.5466 166.027 22.6584C166.027 20.8489 166.9 19.118 169.044 19.118C169.441 19.118 169.918 19.1967 170.235 19.3541V20.0621C170.076 19.9048 169.521 19.7474 169.044 19.7474C168.568 19.7474 166.742 19.9835 166.742 22.7371C166.742 25.176 168.25 25.7267 169.044 25.7267C169.6 25.7267 169.838 25.5694 170.235 25.412V26.0414Z" fill="#00005B"/>
<path d="M171.664 19.1967H172.458L175.396 25.412H175.476V19.1967H176.031V26.1988H175.237L172.3 19.9835H172.22V26.1988H171.664V19.1967Z" fill="#00005B"/>
<path d="M179.843 19.118C182.304 19.118 182.304 22.1077 182.304 22.6584C182.304 23.2878 182.304 26.1988 179.843 26.1988C177.381 26.1988 177.381 23.2091 177.381 22.6584C177.381 22.1077 177.381 19.118 179.843 19.118ZM179.843 25.6481C181.669 25.6481 181.669 23.2091 181.669 22.6584C181.669 22.1077 181.669 19.6688 179.843 19.6688C178.016 19.6688 178.016 22.1077 178.016 22.6584C178.016 23.2091 178.016 25.6481 179.843 25.6481Z" fill="#00005B"/>
<path d="M183.654 19.1967H184.289V25.5694H186.592V26.1988H183.654V19.1967Z" fill="#00005B"/>
<path d="M189.847 19.118C192.309 19.118 192.309 22.1076 192.309 22.6584C192.309 23.2878 192.309 26.1987 189.847 26.1987C187.386 26.1987 187.386 23.2091 187.386 22.6584C187.306 22.1076 187.306 19.118 189.847 19.118ZM189.847 25.648C191.673 25.648 191.673 23.2091 191.673 22.6584C191.673 22.1076 191.673 19.6687 189.847 19.6687C188.021 19.6687 188.021 22.1076 188.021 22.6584C188.021 23.2091 188.021 25.648 189.847 25.648ZM190.8 17.4658L189.847 18.882H189.371L190.165 17.4658H190.8Z" fill="#00005B"/>
<path d="M196.199 22.4224H198.105V25.8841C197.628 26.1201 197.073 26.2775 196.437 26.2775C193.976 26.2775 193.341 23.9959 193.341 22.6584C193.341 20.8489 194.452 19.1967 196.437 19.1967C196.993 19.1967 197.708 19.4327 197.946 19.5114V20.2195C197.628 19.9835 196.993 19.7474 196.437 19.7474C195.405 19.7474 194.055 20.5342 194.055 22.7371C194.055 23.9959 194.611 25.7267 196.517 25.7267C196.914 25.7267 197.152 25.7267 197.47 25.4907V23.0518H196.199V22.4224Z" fill="#00005B"/>
<path d="M200.249 19.1967H199.614V26.1988H200.249V19.1967Z" fill="#00005B"/>
<path d="M205.886 26.0414C205.648 26.1201 205.251 26.2775 204.695 26.2775C202.631 26.2775 201.678 24.5466 201.678 22.6584C201.678 20.8489 202.551 19.118 204.695 19.118C205.092 19.118 205.568 19.1967 205.886 19.3541V20.0621C205.727 19.9048 205.171 19.7474 204.695 19.7474C204.219 19.7474 202.392 19.9835 202.392 22.7371C202.392 25.176 203.901 25.7267 204.695 25.7267C205.251 25.7267 205.489 25.5694 205.886 25.412V26.0414Z" fill="#00005B"/>
<path d="M208.983 19.1967H209.697L212 26.1988H211.365L210.73 24.2319H207.951L207.315 26.1988H206.68L208.983 19.1967ZM208.109 23.6812H210.571L209.38 19.8261L208.109 23.6812Z" fill="#00005B"/>
<path d="M113.543 37.2132C113.305 37.3706 112.67 37.4493 112.034 37.4493C109.891 37.4493 108.779 35.8758 108.779 33.8302C108.779 31.7847 109.891 30.2112 111.955 30.2112C112.67 30.2112 113.305 30.3685 113.543 30.5259L113.464 31.706C113.225 31.5487 112.828 31.3126 112.114 31.3126C111.002 31.3126 110.129 32.0207 110.129 33.8302C110.129 35.6398 111.082 36.3478 112.114 36.3478C112.749 36.3478 113.146 36.1905 113.464 35.9545L113.543 37.2132Z" fill="#00005B"/>
<path d="M117.195 30.2899C118.625 30.2899 119.974 31.3913 119.974 33.9089C119.974 36.4265 118.625 37.528 117.195 37.528C115.766 37.528 114.416 36.4265 114.416 33.9089C114.337 31.3126 115.687 30.2899 117.195 30.2899ZM117.195 36.5052C117.989 36.5052 118.704 35.7971 118.704 33.9089C118.704 32.0207 118.069 31.3126 117.195 31.3126C116.401 31.3126 115.687 32.0207 115.687 33.9089C115.687 35.7971 116.322 36.5052 117.195 36.5052Z" fill="#00005B"/>
<path d="M121.166 30.3685H122.436V36.3478H124.739V37.3706H121.166V30.3685Z" fill="#00005B"/>
<path d="M125.612 35.9545C125.85 36.1118 126.406 36.4265 127.121 36.4265C127.676 36.4265 128.232 36.1118 128.232 35.4037C128.232 34.9317 127.915 34.6957 127.279 34.381L126.644 33.9876C125.93 33.5942 125.453 33.0435 125.453 32.1781C125.453 30.9193 126.485 30.2899 127.676 30.2899C128.47 30.2899 128.947 30.4472 129.185 30.5259L129.106 31.6273C128.788 31.47 128.391 31.3126 127.756 31.3126C127.121 31.3126 126.803 31.6273 126.803 32.0994C126.803 32.6501 127.121 32.8075 127.518 33.0435L128.312 33.4369C129.106 33.9089 129.503 34.3023 129.503 35.3251C129.503 36.7412 128.47 37.4493 127.121 37.4493C126.406 37.4493 125.85 37.3706 125.533 37.1346L125.612 35.9545Z" fill="#00005B"/>
<path d="M131.964 30.3685V34.9317C131.964 36.1118 132.282 36.5052 133.076 36.5052C133.79 36.5052 134.187 36.1118 134.187 34.9317V30.3685H135.458V34.9317C135.458 36.7412 134.425 37.528 133.076 37.528C131.726 37.528 130.694 36.8199 130.694 34.9317V30.3685H131.964Z" fill="#00005B"/>
<path d="M136.966 30.3685H139.031C140.46 30.3685 141.175 30.9193 141.175 32.0994C141.175 33.2008 140.46 33.5155 139.984 33.7516C140.539 33.8302 141.333 34.2236 141.333 35.4037C141.333 36.6625 140.381 37.3706 139.11 37.3706H136.966V30.3685ZM138.237 33.2795H138.951C139.587 33.2795 139.984 32.8075 139.984 32.2567C139.984 31.706 139.587 31.3126 138.951 31.3126H138.316V33.2795H138.237ZM138.237 36.3478H138.951C139.666 36.3478 140.063 35.9545 140.063 35.2464C140.063 34.617 139.745 34.1449 138.951 34.1449H138.237V36.3478Z" fill="#00005B"/>
<path d="M142.524 35.9545C142.763 36.1118 143.318 36.4265 144.033 36.4265C144.589 36.4265 145.145 36.1118 145.145 35.4037C145.145 34.9317 144.827 34.6957 144.192 34.381L143.557 33.9876C142.842 33.5942 142.445 33.0435 142.445 32.1781C142.445 30.9193 143.477 30.2899 144.668 30.2899C145.383 30.2899 145.939 30.4472 146.177 30.5259L146.097 31.6273C145.78 31.47 145.383 31.3126 144.748 31.3126C144.112 31.3126 143.795 31.6273 143.795 32.0994C143.795 32.6501 144.192 32.8075 144.509 33.0435L145.303 33.4369C146.097 33.9089 146.494 34.3023 146.494 35.3251C146.494 36.7412 145.462 37.4493 144.112 37.4493C143.398 37.4493 142.842 37.3706 142.524 37.1346V35.9545Z" fill="#00005B"/>
<path d="M148.956 30.3685H147.685V37.3706H148.956V30.3685Z" fill="#00005B"/>
<path d="M150.385 30.3685H152.211C154.434 30.3685 155.625 31.5487 155.625 33.9089C155.625 36.2692 154.196 37.3706 152.211 37.3706H150.385V30.3685ZM151.655 36.3478H152.052C153.482 36.3478 154.196 35.4037 154.196 33.8302C154.196 32.3354 153.561 31.3126 152.052 31.3126H151.655V36.3478Z" fill="#00005B"/>
<path d="M158.087 30.3685H156.817V37.3706H158.087V30.3685Z" fill="#00005B"/>
<path d="M162.216 30.2899C163.645 30.2899 165.074 31.3913 165.074 33.9089C165.074 36.4265 163.724 37.528 162.216 37.528C160.786 37.528 159.437 36.4265 159.437 33.9089C159.357 31.3126 160.707 30.2899 162.216 30.2899ZM162.216 36.5052C163.01 36.5052 163.724 35.7971 163.724 33.9089C163.724 32.0207 163.089 31.3126 162.216 31.3126C161.422 31.3126 160.707 32.0207 160.707 33.9089C160.707 35.7971 161.342 36.5052 162.216 36.5052Z" fill="#00005B"/>
<path d="M67.4906 36.8199C65.2674 37.3706 62.8059 38 58.8359 38C51.0546 38 42.1617 34.0663 42.1617 23.1304C42.1617 13.06 49.2284 8.02484 58.8359 8.02484C61.7737 8.02484 64.6322 8.65424 67.4906 9.51967L66.8554 15.8137C64.394 14.4762 61.9325 13.7681 59.3123 13.7681C53.8337 13.7681 50.2606 17.7805 50.2606 23.1304C50.2606 28.795 54.3101 32.2567 59.9475 32.2567C62.4883 32.2567 65.0292 31.6273 67.173 30.7619L67.4906 36.8199ZM107.826 8.33954H68.364V37.4493H89.564L89.4846 32.2567L76.2247 32.3354V25.2547H88.373V20.1408H76.1453V14.3188H92.74V37.3706H100.442V14.3188H107.906V8.33954H107.826Z" fill="#00005B"/>
<path d="M1.11161 0H24.4554L12.8629 11.4865L1.11161 0ZM14.3715 11.9586H25.8052L37.636 0.0786749H26.2022L14.3715 11.9586ZM27.6315 11.9586H39.3828V0.0786749L27.6315 11.9586ZM39.3034 37.6853V26.0414H27.3933L39.3034 37.6853ZM25.8846 37.2919V13.06H0.873408L25.8846 37.2919ZM0 13.7681V38.0787H25.0112L0 13.7681ZM39.3034 13.1387H27.2345V25.176H39.3828V13.1387H39.3034Z" fill="#FFED00"/>
</svg>
